<svg width="109" height="107" viewBox="0 0 109 107" fill="none" xmlns="http://www.w3.org/2000/svg">
<path d="M54.5 0C24.3888 0 0 24.5628 0 54.8584C0 79.1012 15.6142 99.6593 37.2644 106.905C39.9894 107.422 40.9885 105.726 40.9885 104.267C40.9885 102.965 40.9431 99.5131 40.9204 94.9415C25.7603 98.2513 22.563 87.5814 22.563 87.5814C20.0832 81.2498 16.4999 79.5583 16.4999 79.5583C11.5631 76.1571 16.8814 76.2257 16.8814 76.2257C22.3541 76.6097 25.229 81.8761 25.229 81.8761C30.0885 90.2649 37.9865 87.8419 41.1021 86.4385C41.5926 82.891 42.996 80.4726 44.5537 79.1012C32.4502 77.7297 19.729 73.0119 19.729 51.992C19.729 46.0033 21.8409 41.1118 25.338 37.2717C24.7248 35.8865 22.8855 30.3092 25.8148 22.7525C25.8148 22.7525 30.3792 21.2805 40.8023 28.3755C45.1623 27.1549 49.7948 26.5514 54.4273 26.524C59.0598 26.5514 63.6923 27.1549 68.0523 28.3755C78.4073 21.2805 82.9717 22.7525 82.9717 22.7525C85.9011 30.3092 84.0617 35.8865 83.5167 37.2717C86.9911 41.1118 89.103 46.0033 89.103 51.992C89.103 73.0668 76.3636 77.7069 64.2373 79.0555C66.1448 80.7012 67.9161 84.0659 67.9161 89.2043C67.9161 96.5461 67.848 102.443 67.848 104.226C67.848 105.666 68.8017 107.381 71.5948 106.832C93.3994 99.6365 109 79.0646 109 54.8584C109 24.5628 84.5976 0 54.5 0Z" fill="#9F50FF"/>
</svg>
