<svg width="106" height="106" viewBox="0 0 106 106" fill="none" xmlns="http://www.w3.org/2000/svg">
<path d="M31.0497 0.371073C25.4104 0.636956 21.5595 1.53707 18.1927 2.85942C14.7088 4.21754 11.7554 6.03941 8.81695 8.98841C5.87897 11.9374 4.06901 14.8926 2.72104 18.3826C1.41635 21.7561 0.53213 25.6105 0.283028 31.2528C0.0339272 36.895 -0.0212814 38.709 0.00654372 53.1019C0.0339272 67.4941 0.0975275 69.2983 0.37092 74.9525C0.640338 80.5903 1.53693 84.4403 2.85972 87.808C4.22006 91.2923 6.03974 94.2444 8.99009 97.1837C11.94 100.123 14.893 101.929 18.391 103.279C21.7618 104.582 25.6172 105.47 31.2586 105.717C36.9 105.964 38.7157 106.021 53.1044 105.994C67.4931 105.966 69.3048 105.902 74.9573 105.634C80.6107 105.366 84.4399 104.463 87.809 103.146C91.2933 101.783 94.2476 99.9662 97.1847 97.0154C100.122 94.0642 101.93 91.1068 103.278 87.615C104.584 84.2442 105.471 80.3894 105.716 74.7519C105.963 69.0947 106.021 67.2887 105.994 52.8983C105.966 38.5076 105.901 36.7034 105.633 31.0514C105.365 25.3994 104.467 21.5613 103.145 18.1914C101.783 14.7071 99.965 11.7572 97.0164 8.81572C94.0674 5.87422 91.1074 4.06693 87.6173 2.72294C84.2438 1.41782 80.3911 0.528748 74.7497 0.284948C69.1083 0.041149 67.2926 -0.0220091 52.8986 0.00625747C38.5046 0.0336407 36.7026 0.0954739 31.0497 0.371073ZM31.6689 96.182C26.5014 95.9572 23.6954 95.0986 21.8254 94.38C19.3494 93.426 17.5854 92.2728 15.722 90.4271C13.8582 88.5818 12.7138 86.8116 11.747 84.3409C11.0209 82.4709 10.1464 79.6681 9.90478 74.5006C9.64199 68.9158 9.58678 67.2388 9.55586 53.0887C9.52495 38.9391 9.57927 37.2638 9.82396 31.6768C10.0448 26.5137 10.9087 23.7047 11.626 21.8356C12.58 19.3565 13.7292 17.5956 15.5789 15.7335C17.4286 13.871 19.1935 12.724 21.6664 11.7572C23.5347 11.028 26.3371 10.161 31.5024 9.91502C37.0917 9.65002 38.7665 9.59702 52.9145 9.5661C67.0625 9.53519 68.7417 9.58819 74.3332 9.83464C79.4963 10.059 82.3067 10.9145 84.1736 11.6366C86.6505 12.5906 88.4136 13.7363 90.2757 15.5895C92.1382 17.4419 93.2861 19.2006 94.2529 21.6788C94.983 23.5413 95.8504 26.3428 96.0942 31.5116C96.3601 37.1009 96.4206 38.777 96.4458 52.9235C96.4714 67.0701 96.4215 68.7502 96.1764 74.3355C95.9511 79.5029 95.0943 82.3097 94.3744 84.1819C93.4204 86.657 92.2707 88.4219 90.4197 90.2831C88.5691 92.1447 86.8064 93.2913 84.3322 94.2581C82.4665 94.9864 79.6606 95.8556 74.4997 96.1016C68.91 96.3644 67.2352 96.4196 53.0819 96.4505C38.9286 96.4814 37.2582 96.424 31.6689 96.182ZM74.876 24.6733C74.8781 25.9313 75.2533 27.1604 75.954 28.2052C76.6547 29.2499 77.6495 30.0635 78.8126 30.5428C79.9757 31.0222 81.2548 31.1458 82.4882 30.8982C83.7216 30.6505 84.8538 30.0426 85.7417 29.1514C86.6296 28.2602 87.2332 27.1257 87.4763 25.8914C87.7193 24.6571 87.5908 23.3785 87.1071 22.2172C86.6234 21.0559 85.8062 20.0641 84.7587 19.3674C83.7113 18.6706 82.4808 18.3001 81.2228 18.3027C79.5365 18.3062 77.9206 18.9793 76.7304 20.1739C75.5402 21.3686 74.8732 22.987 74.876 24.6733ZM25.7868 53.0529C25.8163 68.0837 38.0236 80.2405 53.051 80.2123C68.0792 80.1836 80.2445 67.9777 80.2162 52.9469C80.1875 37.9162 67.9776 25.7558 52.9476 25.7854C37.9176 25.815 25.7585 38.0239 25.7868 53.0529ZM35.3334 53.0339C35.3265 49.5398 36.3559 46.1222 38.2914 43.2131C40.2269 40.304 42.9816 38.0342 46.2071 36.6907C49.4326 35.3471 52.984 34.9903 56.4124 35.6651C59.8407 36.34 62.9919 38.0163 65.4676 40.4821C67.9432 42.9479 69.632 46.0924 70.3205 49.518C71.009 52.9436 70.6662 56.4964 69.3355 59.7272C68.0048 62.958 65.746 65.7217 62.8446 67.6687C59.9432 69.6157 56.5296 70.6587 53.0355 70.6657C50.7154 70.6705 48.417 70.2183 46.2717 69.3348C44.1263 68.4513 42.176 67.1539 40.5322 65.5166C38.8884 63.8793 37.5832 61.9342 36.6911 59.7924C35.7991 57.6506 35.3378 55.3541 35.3334 53.0339Z" fill="#9F50FF"/>
</svg>
