<svg width="104" height="106" viewBox="0 0 104 106" fill="none" xmlns="http://www.w3.org/2000/svg">
<path d="M88.6129 90.3187H73.2034V65.7221C73.2034 59.8568 73.1007 52.3064 65.1888 52.3064C57.163 52.3064 55.9351 58.6968 55.9351 65.2951V90.3171H40.5255V39.7365H55.3187V46.6489H55.5257C58.5421 41.3921 64.1508 38.2525 70.1215 38.4783C85.7397 38.4783 88.6193 48.9492 88.6193 62.571L88.6129 90.3187ZM23.1384 32.8225C18.1997 32.8234 14.1953 28.7434 14.1944 23.7096C14.1936 18.6758 18.1965 14.5943 23.1352 14.5934C28.0739 14.5925 32.0783 18.6725 32.0791 23.7063C32.0796 26.1236 31.1378 28.4421 29.4611 30.1517C27.7844 31.8613 25.5101 32.822 23.1384 32.8225ZM30.8432 90.3187H15.4176V39.7365H30.8432V90.3187ZM96.2952 0.00790395H7.67428C3.48587 -0.0402723 0.0511172 3.37933 0 7.64833V98.3502C0.0493671 102.621 3.48384 106.044 7.67428 105.999H96.2952C100.494 106.052 103.942 102.63 104 98.3502V7.64179C103.94 3.36435 100.492 -0.0550545 96.2952 0.000671559" fill="#9F50FF"/>
</svg>
