<svg width="107" height="107" viewBox="0 0 107 107" fill="none" xmlns="http://www.w3.org/2000/svg">
<path d="M78.0123 64.1198C76.6818 63.4555 70.1371 60.2545 68.9187 59.8086C67.6957 59.3672 66.8088 59.1488 65.9173 60.4774C65.0348 61.8015 62.4815 64.7841 61.7065 65.6669C60.9315 66.5541 60.1521 66.6611 58.8216 66.0012C57.4912 65.3325 53.1997 63.937 48.1154 59.4252C44.1599 55.912 41.4856 51.5741 40.7106 50.2455C39.9356 48.9214 40.63 48.2036 41.293 47.5438C41.8932 46.9508 42.6279 45.9967 43.2909 45.2254C43.9583 44.4497 44.1778 43.8969 44.6258 43.0097C45.0693 42.1269 44.8498 41.3556 44.5138 40.6913C44.1778 40.027 41.5169 33.5045 40.4105 30.8518C39.3264 28.2704 38.2289 28.6226 37.4136 28.5781C36.6387 28.5424 35.7517 28.5335 34.8603 28.5335C33.9733 28.5335 32.5309 28.8634 31.3124 30.192C30.094 31.5161 26.6536 34.7216 26.6536 41.2442C26.6536 47.7622 31.4244 54.0618 32.0874 54.949C32.7548 55.8318 41.4766 69.2157 54.8303 74.9536C58.0064 76.3178 60.4836 77.1337 62.4188 77.74C65.6082 78.752 68.511 78.6094 70.8001 78.2661C73.3579 77.8871 78.6752 75.0606 79.7862 71.9665C80.8971 68.8724 80.8971 66.2197 80.5611 65.6669C80.2297 65.114 79.3472 64.7841 78.0123 64.1198ZM53.7239 97.1248H53.7059C45.776 97.1255 37.9919 95.0035 31.1691 90.9812L29.5519 90.0272L12.7937 94.4052L17.2644 78.1413L16.2117 76.4738C11.7788 69.4487 9.43377 61.3186 9.44748 53.0231C9.45196 28.7252 29.319 8.95696 53.7418 8.95696C65.5679 8.95696 76.6863 13.549 85.0452 21.8772C89.1695 25.9638 92.4385 30.8238 94.663 36.1761C96.8874 41.5284 98.0233 47.2666 98.0047 53.0587C97.9913 77.3566 78.1287 97.1248 53.7239 97.1248ZM91.4107 15.5508C86.4751 10.6062 80.6025 6.68561 74.1333 4.01624C67.6641 1.34688 60.727 -0.0181732 53.7239 0.000182691C24.3601 0.000182691 0.461399 23.7854 0.44796 53.0186C0.44796 62.3632 2.8983 71.485 7.56157 79.5233L0 107L28.2439 99.6259C36.0545 103.861 44.8069 106.08 53.7015 106.082H53.7239C83.0832 106.082 106.986 82.2964 107 53.0587C107.021 46.0916 105.655 39.1893 102.979 32.7512C100.303 26.3131 96.3713 20.4669 91.4107 15.5508Z" fill="#9F50FF"/>
</svg>
