<svg width="86" height="97" viewBox="0 0 86 97" fill="none" xmlns="http://www.w3.org/2000/svg">
<path d="M3 79.5564V17.3967M82.9993 38.35C82.9993 46.5166 65.2293 53.0732 42.9998 53.0732C20.7702 53.0732 3.00024 46.5399 3.00024 38.3733M82.9995 58.65C82.9995 66.8167 65.2295 73.3499 43 73.3499C20.7705 73.3499 3.00048 66.8167 3.00048 58.65M3.00072 79.58C3.00072 87.4433 20.7707 94 43.0002 94C65.2298 94 82.9998 87.4433 82.9998 79.58L83 17.3967M82.9991 17.42C82.9991 25.5866 65.2291 32.1199 42.9995 32.1199C20.77 32.1199 3 25.5866 3 17.42C3.63374 9.55666 21.1095 3 42.6827 3C64.5953 3 82.3651 9.53329 82.9991 17.42Z" stroke="#9F50FF" stroke-width="6" stroke-linecap="round" stroke-linejoin="round"/>
</svg>
