<svg width="115" height="92" viewBox="0 0 115 92" fill="none" xmlns="http://www.w3.org/2000/svg">
<path d="M56.3979 42.3491H47.7058V27.7356H58.0175C63.6237 27.7356 66.8054 30.2466 66.8054 34.7874C66.8054 39.6361 63.1015 42.3491 56.3883 42.3491H56.3979ZM57.9504 48.1502H47.7106V64.2547H58.4008C65.3919 64.2547 69.0958 61.4408 69.0958 56.1495C69.0958 50.8583 65.2865 48.1502 57.9504 48.1502ZM115 43.0706V48.9294C109.595 49.4489 106.294 53.4703 104.334 59.839C102.384 66.1836 102.115 73.9665 102.321 79.9745C102.537 86.2277 97.6829 92 91.1231 92H23.8865C17.3219 92 12.4679 86.2277 12.6883 79.9745C12.8944 73.9665 12.626 66.1836 10.6758 59.839C8.71125 53.4703 5.405 49.4489 0 48.9294V43.0706C5.405 42.5511 8.71604 38.5297 10.671 32.161C12.626 25.8164 12.8944 18.0335 12.6835 12.0255C12.4679 5.77225 17.3219 0 23.8865 0H91.1231C97.6877 0 102.537 5.77225 102.321 12.0255C102.115 18.0335 102.384 25.8164 104.334 32.161C106.294 38.5297 109.595 42.5511 115 43.0706ZM77.0165 56.6209C77.0165 50.1079 72.45 45.3987 65.6698 44.6531V44.379C70.6531 43.566 74.5631 38.9194 74.5631 33.734C74.5631 26.3407 68.7508 21.5257 59.891 21.5257H39.9577V70.4551H59.9917C70.6196 70.4551 77.0165 65.2312 77.0165 56.6209Z" fill="#9F50FF"/>
</svg>
