<svg width="103" height="103" viewBox="0 0 103 103" fill="none" xmlns="http://www.w3.org/2000/svg">
<path d="M51.5 0C23.0591 0 0 23.0591 0 51.5C0 79.9409 23.0591 103 51.5 103C79.9409 103 103 79.9409 103 51.5C103 23.0591 79.9409 0 51.5 0ZM29.8786 32.96C33.1145 32.96 35.6165 35.3161 35.9084 38.11C36.2045 40.612 35.1745 42.818 32.3806 44.1441C30.9086 44.878 30.3206 44.8822 30.0245 44.4402C29.8786 44.1441 30.0245 43.8522 30.3206 43.5561C32.9686 41.3502 32.9686 39.582 32.6725 37.0843C32.5265 35.462 31.3506 34.432 30.1704 34.432C25.0204 34.432 17.6645 45.908 18.6945 54.2982C19.1365 57.5341 21.0506 61.3622 25.1706 61.3622C26.4925 61.3622 27.9602 60.9202 29.2906 60.3322C31.4365 59.1992 32.7197 58.3152 33.9986 56.8989C33.6853 53.1008 37.0199 48.1182 41.9425 48.1182C44.1527 48.1182 45.9165 48.998 46.0625 50.6202C46.3543 52.8261 44.4445 53.118 43.8565 53.118C43.2686 53.118 42.2343 52.972 42.2343 52.3884C42.0884 51.7961 43.5604 52.088 43.4145 50.7661C43.2643 49.882 42.3845 49.5902 41.5004 49.5902C38.4104 49.5902 36.6465 53.8561 37.0843 56.5041C37.2345 57.6843 37.8225 58.8602 39.0027 58.8602C39.8825 58.8602 41.2086 57.5298 41.6506 55.62C41.9425 54.2982 43.1227 53.4141 44.1527 53.4141C44.5904 53.4141 44.8822 53.56 45.0325 54.148V54.7402C44.8865 55.3282 44.4445 57.092 44.5947 57.5341C44.5947 57.8302 44.7406 58.268 45.3243 58.268C45.7191 58.268 47.1955 57.4955 48.6589 56.2981C49.161 53.766 49.7447 50.7275 49.7447 50.4743C49.8906 49.4443 50.3327 48.4143 52.3927 48.4143C52.8347 48.4143 53.1265 48.5602 53.2725 49.1482V49.7404L52.6888 52.3884C54.5986 49.8863 57.3967 48.1225 59.1606 48.1225C59.8988 48.1225 60.4867 48.5602 60.4867 49.2984C60.4867 49.7404 60.4867 50.4743 60.1906 51.2125C59.6027 52.8304 58.8645 55.3325 58.4225 57.5384C58.4225 58.1263 58.5727 58.7143 59.3108 58.7143C60.0447 58.7143 62.2506 57.8302 64.0145 55.4784L64.0445 55.4612C64.036 55.1694 64.0145 54.8861 64.0145 54.5943C64.0145 52.8304 64.1647 51.3584 64.4608 50.3284C64.7527 49.1525 66.2247 48.1225 67.1088 48.1225C67.5508 48.1225 67.9886 48.4186 67.9886 48.8563C67.9886 49.0065 67.9886 49.2984 67.8427 49.4443C67.2547 51.3584 66.8127 53.1222 66.8127 54.8904C66.8127 55.9204 66.9586 57.3882 67.2504 58.2722C67.2504 58.4182 67.4006 58.5684 67.5508 58.5684C67.8427 58.5684 69.9027 56.6586 71.3704 54.1565C70.0486 53.2725 69.3104 51.8004 69.3104 50.0365C69.3104 46.9465 71.2245 45.3286 72.9927 45.3286C74.4647 45.3286 75.6406 46.3586 75.6406 48.4186C75.6406 49.7404 75.1986 51.2082 74.4647 52.5386H74.9025C75.3693 52.5538 75.834 52.4698 76.2661 52.2923C76.6981 52.1147 77.0875 51.8476 77.4088 51.5086C77.5438 51.2857 77.7448 51.1102 77.9839 51.0065C79.4216 49.1825 81.546 47.8306 84.0351 47.8306C86.0951 47.8306 88.0006 48.7104 88.1508 50.3284C88.4427 52.5386 86.5286 52.9806 85.9406 52.9806L85.932 52.972C85.3398 52.972 84.3141 52.8218 84.3141 52.2339C84.3141 51.6459 85.6402 51.942 85.49 50.6202C85.3441 49.7361 84.46 49.44 83.5759 49.44C80.6318 49.44 78.7263 53.2639 79.1641 56.3539C79.31 57.5341 79.898 58.8559 81.0739 58.8559C81.958 58.8559 83.2841 57.5341 83.872 55.62C84.1639 54.4441 85.3441 53.4141 86.3741 53.4141C86.8161 53.4141 87.1037 53.56 87.2539 54.148C87.2539 54.4441 87.2539 55.032 86.6659 56.9461C85.9363 58.268 85.932 59.0061 86.078 59.5941C86.2239 60.77 86.8118 61.6541 87.4041 62.0961C87.55 62.242 87.6959 62.5339 87.6959 62.5339C87.6959 62.83 87.55 63.1261 87.108 63.1261C86.962 63.1261 86.8161 63.1261 86.6659 62.9759C84.46 62.0961 83.5759 60.6241 83.2798 59.152C82.4 60.182 81.37 60.77 80.1898 60.77C78.28 60.77 76.3702 59.0061 76.0698 56.7959C75.9855 55.8552 76.095 54.9073 76.3917 54.0106C75.5205 54.5685 74.5806 54.8818 73.718 54.8818H72.9884C71.07 57.68 69.01 59.5941 67.538 60.4739C67.0381 60.74 66.4856 60.8924 65.92 60.9202C65.6282 60.9202 65.1861 60.77 65.0402 60.4739C64.6325 59.8215 64.3707 58.7915 64.2119 57.6113C62.1476 59.873 59.298 61.0661 57.9761 61.0661C56.5041 61.0661 55.6243 60.182 55.4784 58.7057V57.092C55.9161 53.8561 57.0963 51.942 57.0963 51.3541C57.0923 51.2764 57.0599 51.203 57.0054 51.1476C56.9508 51.0922 56.8778 51.0588 56.8002 51.0537C55.7702 51.0537 52.3884 54.59 51.7961 56.9461L51.3541 58.8559C51.0622 60.182 49.7361 61.0661 48.8563 61.0661C48.4143 61.0661 48.1182 60.9159 47.9723 60.328V59.74L48.1697 58.74C46.3028 60.0705 44.4359 60.9202 43.5561 60.9202C42.2343 60.9202 41.4961 60.182 41.3502 59.152C40.4661 60.328 39.4404 60.9202 38.1143 60.9202C36.6036 60.9202 35.1273 59.8902 34.4149 58.3752C33.3677 59.5555 32.1703 60.7485 30.7584 61.6541C28.6984 62.9802 26.3465 64.0102 23.5484 64.0102C21.0506 64.0102 18.8404 62.6841 17.6645 61.5082C15.8963 59.8902 14.8706 57.3882 14.7204 55.032C13.8406 47.822 18.2525 38.552 25.0204 34.432C26.6427 33.5522 28.2606 32.96 29.8786 32.96ZM71.8082 47.0839C71.3618 47.0839 71.07 47.822 71.07 48.5559C71.07 49.7318 71.658 51.058 72.3961 51.7961C72.6839 50.9932 72.8319 50.147 72.8339 49.2941C72.8339 47.822 72.2502 47.0839 71.8082 47.0839Z" fill="#9F50FF"/>
</svg>
