<svg width="78" height="111" viewBox="0 0 78 111" fill="none" xmlns="http://www.w3.org/2000/svg">
<path d="M18.3472 7.47519V14.9504H30.1841V9.96692H23.2901V4.98346H30.1841V0H18.3472V7.47519ZM32.5385 4.86543L32.558 9.73742L35.992 9.75709L39.4195 9.7702V10.6226H32.5255V15.1471H44.3624V5.18017H37.4684V4.32774H44.3624V0H32.5255L32.5385 4.86543ZM46.7688 4.8851V9.7702H53.5978V10.6226H46.7688V15.1471H58.5407V5.18017H51.7117V4.32774H58.5407V0H46.7688V4.8851ZM0.032519 22.0452C0.0520304 22.1633 1.65196 40.2152 3.59009 62.1621C5.52822 84.109 7.11515 102.069 7.12165 102.076C7.12816 102.082 14.2888 104.095 23.0429 106.541L38.9577 111L54.9115 106.541C63.6852 104.089 70.8718 102.076 70.8718 102.069C70.8783 102.069 72.4653 84.1221 74.4034 62.1949C76.3415 40.2677 77.9415 22.2157 77.961 22.078L78 21.8354H0L0.032519 22.0452ZM63.4185 38.3726C63.4185 38.5169 62.9567 43.7561 60.2381 74.4503C59.5617 82.0894 58.9829 88.3646 58.9504 88.3908C58.8788 88.4564 39.1333 93.9644 38.9772 93.9644C38.8537 93.9644 19.0106 88.4302 18.9651 88.3777C18.9521 88.3646 18.6464 85.0073 18.2887 80.9156C17.9245 76.824 17.6188 73.3486 17.5928 73.1913L17.5602 72.9159H22.4706C25.1762 72.9159 27.3875 72.9224 27.394 72.929C27.394 72.9421 27.5501 74.6994 27.7452 76.8371C27.9338 78.9813 28.1029 80.7386 28.1159 80.7517C28.1289 80.7648 30.5678 81.4402 33.5466 82.2467L38.9512 83.7221L44.3689 82.2467C47.3541 81.4337 49.8061 80.7583 49.8191 80.7517C49.8451 80.7189 50.9247 68.575 50.9312 68.2406V67.998H17.1115V67.8341C17.1115 67.7423 16.9229 65.5325 16.6887 62.9293C16.4546 60.3261 16.266 58.1884 16.266 58.1753C16.266 58.1688 24.2722 58.1622 34.0539 58.1622H51.8417V57.9983C51.8417 57.913 52.0304 55.6836 52.2645 53.0607C52.4986 50.4313 52.6872 48.2281 52.6872 48.1691C52.6872 48.0707 51.2499 48.0642 34.0409 48.051L15.388 48.0314L14.9912 43.5725C14.7701 41.1201 14.5685 38.9169 14.5425 38.6677L14.5035 38.2284H63.4185V38.3726Z" fill="#9F50FF"/>
</svg>
