<svg width="73" height="106" viewBox="0 0 73 106" fill="none" xmlns="http://www.w3.org/2000/svg">
<path d="M53.3554 39.6661H33.282V0H53.3554C64.1884 0 73 8.89517 73 19.8308C73 30.7665 64.1884 39.6661 53.3554 39.6661ZM39.7179 33.1692H53.3554C60.6401 33.1692 66.5641 27.1846 66.5641 19.8353C66.5641 12.4859 60.6357 6.50133 53.3554 6.50133H39.7179V33.1692ZM39.7179 39.6661H19.649C8.816 39.6661 0.00437487 30.7709 0.00437487 19.8353C0.00437487 8.89958 8.816 0 19.649 0H39.7223V39.6661H39.7179ZM19.649 6.49692C12.3643 6.49692 6.44028 12.4815 6.44028 19.8308C6.44028 27.1802 12.3643 33.1692 19.649 33.1692H33.2864V6.49692H19.649ZM39.7179 72.8308H19.649C8.816 72.8308 0.00437487 63.9357 0.00437487 53C0.00437487 42.0643 8.816 33.1692 19.649 33.1692H39.7223V72.8308H39.7179ZM19.649 39.6661C12.3643 39.6661 6.44028 45.6507 6.44028 53C6.44028 60.3493 12.3687 66.3339 19.649 66.3339H33.2864V39.6661H19.649ZM19.754 106C8.86413 106 0 97.1048 0 86.1692C0 75.2335 8.81163 66.3383 19.6446 66.3383H39.7179V85.9527C39.7179 97.0077 30.7619 106 19.754 106ZM19.649 72.8308C16.1472 72.8355 12.7902 74.2418 10.3141 76.7414C7.83802 79.241 6.44491 82.6298 6.44028 86.1648C6.44028 93.5185 12.4124 99.4987 19.7583 99.4987C27.218 99.4987 33.2908 93.4213 33.2908 85.9483V72.8308H19.649ZM53.3554 72.8308H52.9266C42.0937 72.8308 33.282 63.9357 33.282 53C33.282 42.0643 42.0937 33.1692 52.9266 33.1692H53.3554C64.1884 33.1692 73 42.0643 73 53C73 63.9357 64.1884 72.8308 53.3554 72.8308ZM52.931 39.6661C45.6463 39.6661 39.7223 45.6507 39.7223 53C39.7223 60.3493 45.6507 66.3339 52.931 66.3339H53.3598C60.6445 66.3339 66.5685 60.3493 66.5685 53C66.5685 45.6507 60.6357 39.6661 53.3554 39.6661H52.931Z" fill="#9F50FF"/>
</svg>
