<svg width="77" height="109" viewBox="0 0 77 109" fill="none" xmlns="http://www.w3.org/2000/svg">
<path fill-rule="evenodd" clip-rule="evenodd" d="M38.4992 109L7.21478 100.081L0 21.3623H77L69.7734 100.081L38.4992 109ZM62.7178 37.4347H14.2687L16.9784 66.909L17.0377 66.725H50.1393L49.0588 79.1919L38.4992 82.2524L27.7786 79.1459L27.135 71.6011H17.4052L18.794 86.6908L38.4992 92.306L58.2043 86.6788L60.9141 57.0888H25.792L24.8859 47.2191H61.8236L62.7212 37.433L62.7178 37.4347ZM62.9828 9.75209V0H58.0773V14.698H69.8309V9.75209H62.9828ZM23.5725 4.94588H27.8489V14.698H32.7773V4.94588H37.052V0H23.5878V4.94588H23.5742H23.5725ZM55.575 0V14.698H50.8202V7.21103L47.3483 12.6542L47.3339 12.6644L47.322 12.6525L43.9348 7.3558V14.6963H39.1766V0H44.2786L47.3203 5.02422L50.3714 0H55.575ZM16.5203 4.87605H12.0746V0H7.15889V14.698H12.0746V9.82192H16.522V14.698H21.4267V0H16.5152V4.87605H16.5186H16.5203Z" fill="#9F50FF"/>
</svg>
