<svg width="92" height="93" viewBox="0 0 92 93" fill="none" xmlns="http://www.w3.org/2000/svg">
<path d="M0 0H92V93H0V0ZM84.4637 70.8195C83.7928 66.5764 81.0597 63.0114 72.9522 59.6866C70.1308 58.3497 66.9952 57.4197 66.0637 55.2691C65.7148 53.9904 65.6612 53.2929 65.8873 52.5372C66.4623 50.034 69.3948 49.2822 71.6948 49.9797C73.1898 50.4447 74.5698 51.6073 75.4362 53.4673C79.3998 50.8478 79.3998 50.8478 82.1637 49.1079C81.1287 47.4804 80.615 46.779 79.9173 46.0854C77.5023 43.3535 74.2862 41.9585 69.0537 42.0786L66.3512 42.4235C63.7598 43.0629 61.2912 44.4579 59.7962 46.3179C55.4262 51.3205 56.6873 60.0392 61.9773 63.643C67.2098 67.5955 74.8612 68.4635 75.8387 72.1874C76.7587 76.7211 72.5037 78.1742 68.3023 77.6511C65.1935 76.9536 63.4723 75.3804 61.5748 72.4741L54.5598 76.5467C55.3648 78.4067 56.2848 79.2166 57.6648 80.8441C64.3348 87.6486 81.0098 87.2999 84.0037 76.9536C84.1148 76.6049 84.9237 74.2217 84.2873 70.5599L84.4637 70.8195ZM50.0288 42.7451H41.4115C41.4115 50.2549 41.377 57.7181 41.377 65.2395C41.377 70.0135 41.6185 74.3961 40.848 75.7446C39.583 78.4145 36.3247 78.0735 34.845 77.6046C33.327 76.8451 32.5565 75.7989 31.6633 74.2915C31.4218 73.8846 31.2417 73.532 31.1765 73.532L24.1807 77.8914C25.3498 80.3326 27.0557 82.4329 29.256 83.7698C32.5335 85.746 36.938 86.3854 41.5495 85.3391C44.551 84.4634 47.1385 82.6615 48.4917 79.8715C50.4467 76.2677 50.0327 71.8503 50.0135 66.9058C50.0595 58.9465 50.0135 50.9834 50.0135 42.9621L50.0288 42.7451Z" fill="#9F50FF"/>
</svg>
