<svg width="87" height="107" viewBox="0 0 87 107" fill="none" xmlns="http://www.w3.org/2000/svg">
<path d="M45.7182 0C45.0361 0 44.3321 0.0356671 43.606 0.0936261C25.0104 1.57827 29.9431 21.5251 29.6571 28.1725C29.3227 33.0411 28.337 36.8798 25.0368 41.6369C21.1425 46.3226 15.6773 53.8974 13.0856 61.7932C11.8623 65.5026 11.2814 69.3011 11.8227 72.8901C11.622 73.0547 11.4571 73.2596 11.3386 73.492C10.1946 74.6869 9.35851 76.167 8.42125 77.2326C7.54559 78.1198 6.28711 78.423 4.91421 79.016C3.53692 79.6223 2.01882 80.2153 1.11236 82.0477C0.716332 82.8903 0.513918 83.8043 0.531519 84.7316C0.531519 85.6188 0.650327 86.515 0.773535 87.1213C1.02875 88.9002 1.28397 90.367 0.949547 91.4459C-0.146126 94.4776 -0.282535 96.5508 0.483116 98.0622C1.24877 99.5513 2.83727 100.158 4.61939 100.742C8.18363 101.633 13.024 101.344 16.8258 103.417C20.9005 105.494 25.0368 106.404 28.337 105.512C30.6515 104.995 32.6053 103.443 33.6525 101.295C36.2355 101.281 39.0649 100.095 43.5972 99.8054C46.673 99.5468 50.5233 100.996 54.9368 100.697C55.0468 101.295 55.214 101.58 55.4384 102.182L55.4516 102.195C57.1721 105.664 60.3491 107.242 63.7418 106.97C67.1344 106.703 70.747 104.58 73.6732 101.147C76.4498 97.7367 81.0789 96.3145 84.1371 94.4464C85.6684 93.5592 86.9049 92.3554 86.9929 90.6434C87.0941 88.8601 86.1129 87.0277 83.8511 84.5087V84.0762L83.8379 84.0628C83.0899 83.1712 82.7378 81.6776 82.3506 79.9344C81.9766 78.1466 81.5498 76.4301 80.1857 75.2709H80.1725C79.9128 75.0302 79.6312 74.9722 79.3452 74.669C79.0991 74.495 78.809 74.3959 78.5091 74.3837C80.4057 68.6859 79.6708 63.0148 77.7479 57.9144C75.4025 51.6281 71.3015 46.1532 68.1773 42.3859C64.6746 37.9052 61.2424 33.6608 61.3128 27.37C61.4272 17.7756 62.3513 0.0267503 45.7182 0ZM48.0459 15.1808H48.1031C49.0404 15.1808 49.8456 15.4572 50.6729 16.0636C51.5089 16.6654 52.125 17.5437 52.6002 18.4399C53.0622 19.5946 53.2955 20.4863 53.3307 21.6678C53.3307 21.5786 53.3571 21.4894 53.3571 21.4002V21.8684C53.3474 21.838 53.3415 21.8066 53.3395 21.7748L53.3219 21.6678C53.313 22.7513 53.0885 23.8218 52.6618 24.8154C52.4563 25.3744 52.137 25.8833 51.7246 26.3089C51.5999 26.2376 51.4705 26.175 51.3373 26.1217C50.8797 25.9211 50.4661 25.8363 50.0876 25.5287C49.7741 25.4021 49.4501 25.3037 49.1196 25.2345C49.3396 24.967 49.762 24.6415 49.9248 24.3517C50.158 23.781 50.2857 23.1747 50.3121 22.5594V22.4703C50.322 21.8648 50.2313 21.2619 50.0436 20.6869C49.8456 20.0895 49.5992 19.7952 49.2384 19.2023C48.8688 18.908 48.5035 18.6138 48.0635 18.6138H47.9931C47.5839 18.6138 47.2187 18.7475 46.8402 19.2023C46.4223 19.6152 46.1124 20.1269 45.9382 20.6914C45.7045 21.2578 45.5704 21.8614 45.5421 22.4747V22.5594C45.5509 22.9562 45.5773 23.3575 45.6301 23.7498C44.7809 23.4511 43.7028 23.1479 42.9592 22.8492C42.9148 22.5539 42.8883 22.2561 42.88 21.9575V21.8684C42.8454 20.6915 43.0709 19.5216 43.54 18.4443C43.9008 17.4635 44.5609 16.6342 45.4321 16.068C46.1843 15.4904 47.1021 15.1818 48.0459 15.1808ZM35.0122 15.4438H35.1706C35.7955 15.4438 36.3587 15.6578 36.9264 16.0457C37.5688 16.6209 38.088 17.3297 38.4401 18.1189C38.8361 19.0061 39.0561 19.9022 39.1133 21.0926V21.1105C39.1441 21.7079 39.1397 22.0021 39.1045 22.2964V22.6531C38.9725 22.6843 38.8581 22.7333 38.7393 22.7601C38.0704 23.0053 37.5336 23.3619 37.01 23.6517C37.0628 23.2505 37.0672 22.8492 37.0232 22.4613V22.3945C36.9704 21.8015 36.8472 21.5028 36.6623 20.9098C36.5251 20.4554 36.2734 20.0451 35.9319 19.7194C35.8235 19.6195 35.6963 19.5428 35.5579 19.4937C35.4196 19.4447 35.2729 19.4244 35.1266 19.4341H35.0342C34.7218 19.4609 34.4622 19.6124 34.2158 20.0226C33.9351 20.3678 33.7525 20.784 33.6877 21.2264C33.5688 21.7069 33.5345 22.205 33.5865 22.6976V22.7645C33.6393 23.3664 33.7493 23.6562 33.9386 24.2536C34.141 24.851 34.3698 25.1453 34.669 25.4485C34.713 25.4886 34.757 25.5287 34.8186 25.5555C34.5106 25.8096 34.3038 25.8675 34.0442 26.1618C33.8795 26.3093 33.6815 26.4134 33.4677 26.465C33.0103 25.9069 32.6052 25.3069 32.2576 24.6727C31.8416 23.7358 31.61 22.7257 31.5756 21.699C31.5027 20.6925 31.6223 19.6813 31.9276 18.7208C32.17 17.8448 32.5946 17.0315 33.1729 16.3355C33.7361 15.7426 34.317 15.4438 35.0122 15.4438ZM41.0406 23.0499C42.5015 23.0499 44.2661 23.3396 46.3914 24.8287C47.6807 25.7204 48.6927 26.0281 51.0205 26.9153H51.0337C52.1558 27.5216 52.8158 28.1012 53.137 28.6942V28.1101C53.295 28.4343 53.3829 28.7888 53.395 29.1502C53.4072 29.5115 53.3432 29.8712 53.2075 30.2056C52.6662 31.5877 50.9369 33.0723 48.5299 33.9595V33.9684C47.3507 34.5703 46.3254 35.4531 45.1197 36.0416C43.9052 36.6435 42.5323 37.3434 40.6666 37.232C39.9964 37.2671 39.326 37.1656 38.6953 36.9333C38.2079 36.6646 37.7349 36.3699 37.2784 36.0505C36.4203 35.4486 35.6811 34.5703 34.5854 33.9774V33.9551H34.5634C32.8033 32.8583 31.8528 31.6724 31.5448 30.7896C31.2368 29.5948 31.5228 28.6942 32.3941 28.1146C33.3797 27.5127 34.0662 26.9064 34.5194 26.6166C34.977 26.2866 35.1486 26.1618 35.2939 26.0325H35.3027V26.0191C36.0463 25.1185 37.2212 23.9237 38.9945 23.3396C39.6061 23.1791 40.2882 23.0499 41.045 23.0499H41.0406ZM53.3615 32.5997C54.9368 38.9172 58.6242 48.0926 60.996 52.5421C62.2545 54.9228 64.7582 59.9385 65.8451 66.0242C66.5315 66.0019 67.2972 66.1045 68.1025 66.3096C70.945 58.8596 65.6999 50.8523 63.3105 48.6276C62.3425 47.7359 62.2897 47.134 62.7693 47.134C65.3655 49.5148 68.7757 54.1426 70.0122 59.4258C70.5842 61.8111 70.7162 64.3479 70.1046 66.8713C70.3994 66.9961 70.6986 67.1388 71.0066 67.17C75.5478 69.5508 77.2243 71.352 76.419 74.0226V73.8309C76.155 73.8175 75.891 73.8309 75.627 73.8309H75.5566C76.221 71.7488 74.7557 70.1527 70.8702 68.3738C66.844 66.5904 63.6274 66.8758 63.0817 70.4469C63.0465 70.6387 63.0245 70.7412 63.0025 71.0488C62.7033 71.1514 62.3909 71.2851 62.0828 71.3342C60.1907 72.529 59.1699 74.3168 58.5934 76.6263C58.0214 79.0026 57.8454 81.7802 57.6914 84.959V84.9724C57.6034 86.4615 56.9433 88.7085 56.2877 90.9912C49.6872 95.7706 40.5346 97.8482 32.7549 92.4803C32.2667 91.6157 31.6723 90.8172 30.986 90.104C30.658 89.5506 30.2501 89.0502 29.7759 88.6193C30.5767 88.6193 31.2632 88.4856 31.822 88.3206C32.4548 88.0232 32.9498 87.4897 33.2037 86.8315C33.6789 85.6411 33.2037 83.724 31.6856 81.6464C30.1675 79.5643 27.5889 77.2103 23.8179 74.8652C21.0457 73.0818 19.4792 70.9864 18.7575 68.6413C18.0315 66.2605 18.1283 63.8039 18.6915 61.3073C19.7696 56.5368 22.533 51.9001 24.2975 48.9887C24.7683 48.6989 24.4603 49.5906 22.5022 53.3312C20.7597 56.6794 17.4859 64.4638 21.9654 70.5138C22.1346 66.0996 23.0994 61.7539 24.8123 57.6915C27.2941 51.9937 32.4821 42.0693 32.8913 34.2047C33.1025 34.3652 33.8462 34.8066 34.163 35.1053C35.1222 35.6983 35.8351 36.59 36.7592 37.1785C37.6832 38.0746 38.8581 38.672 40.6138 38.672C40.7854 38.6854 40.9438 38.6988 41.0978 38.6988C42.9108 38.6988 44.3101 38.1014 45.4849 37.5039C46.761 36.9065 47.7731 36.0148 48.7412 35.7206H48.7632C50.8181 35.1187 52.4374 33.9283 53.3571 32.5997H53.3615ZM62.9761 72.5379C63.1389 75.213 64.4854 78.0886 66.8572 78.6771C69.4445 79.2745 73.1672 77.1925 74.7381 75.2665L75.6666 75.2219C77.0527 75.1907 78.2055 75.2665 79.3936 76.4167L79.4068 76.4301C80.3221 77.3173 80.7489 78.793 81.1273 80.3356C81.5014 82.119 81.805 83.8132 82.927 85.0883C85.0656 87.4378 85.7652 89.1276 85.7256 90.1708L85.7388 90.1396V90.2199L85.7256 90.1708C85.6596 91.3389 84.9116 91.9319 83.5343 92.8191C80.7621 94.6069 75.8514 95.9935 72.7228 99.8188C70.0034 103.105 66.6944 104.901 63.7638 105.129C60.842 105.365 58.3206 104.237 56.8377 101.125L56.8157 101.112C55.8916 99.3284 56.2877 96.5419 57.0621 93.577C57.8366 90.5988 58.9454 87.585 59.0994 85.1195C59.2623 81.9362 59.4339 79.1675 59.9575 77.032C60.4855 74.9588 61.3128 73.4786 62.7781 72.6449L62.9761 72.5468V72.5379ZM15.3913 72.7564H15.4353C15.6685 72.7564 15.8973 72.7787 16.1262 72.8188C17.7807 73.064 19.2328 74.3034 20.6277 76.1715L24.6319 83.5903L24.6451 83.6036C25.7144 85.98 27.963 88.3474 29.8771 90.902C31.7868 93.5681 33.2653 95.9444 33.0849 97.9017V97.9284C32.8341 101.245 30.9728 103.047 28.1346 103.698C25.2964 104.299 21.4461 103.706 17.5959 101.629C13.3364 99.2392 8.27604 99.5379 5.02422 98.9449C3.40051 98.6507 2.34004 98.0533 1.84281 97.1616C1.35877 96.2699 1.34557 94.4776 2.38404 91.6778V91.6599L2.39284 91.6466C2.90768 90.1575 2.52485 88.2939 2.27404 86.6621C2.03202 84.8743 1.90881 83.4966 2.46325 82.4712C3.1673 80.9821 4.20577 80.6879 5.49945 80.0949C6.79314 79.493 8.31564 79.1943 9.52572 77.9994H9.53452V77.9905C10.661 76.7957 11.4927 75.311 12.4739 74.2544C13.31 73.3583 14.146 72.7564 15.3913 72.7564ZM46.893 32.301C44.9789 33.1971 42.7348 34.6862 40.3454 34.6862C37.9604 34.6862 36.0771 33.4958 34.713 32.6086C34.0354 32.0112 33.4809 31.4138 33.0717 31.1151C32.3501 30.5176 32.4381 29.6304 32.7461 29.6304C33.2257 29.7018 33.3137 30.2279 33.6217 30.5221C34.0442 30.8164 34.5678 31.4138 35.2058 32.0067C36.4907 32.8984 38.198 34.0888 40.341 34.0888C42.4751 34.0888 44.9745 32.8984 46.4926 32.0112C47.3507 31.4093 48.4507 30.5221 49.344 29.9291C50.0304 29.3228 49.9996 28.7388 50.5717 28.7388C51.1349 28.8101 50.7213 29.3362 49.9248 30.2189C48.9488 30.9668 47.9354 31.6632 46.8886 32.3055L46.893 32.301ZM42.1319 25.2434V25.1453C42.1055 25.0561 42.1891 24.958 42.2595 24.9224C42.5851 24.7307 43.0516 24.802 43.4036 24.9402C43.6808 24.9402 44.1076 25.2389 44.0636 25.5421C44.0372 25.7605 43.6896 25.8363 43.4696 25.8363C43.2276 25.8363 43.0648 25.6446 42.8492 25.5332C42.6203 25.4529 42.2067 25.4975 42.1319 25.2434ZM39.7073 25.2434C39.6193 25.502 39.2101 25.4618 38.9769 25.5376C38.7701 25.6491 38.5985 25.8408 38.3609 25.8408C38.1408 25.8408 37.7888 25.7516 37.7624 25.5376C37.7184 25.2434 38.1496 24.9447 38.4225 24.9447C38.7745 24.8065 39.2321 24.7351 39.5621 24.9224C39.6457 24.9625 39.7206 25.0561 39.6941 25.1453V25.2345H39.7073V25.2434Z" fill="#9F50FF"/>
</svg>
