<svg width="94" height="95" viewBox="0 0 94 95" fill="none" xmlns="http://www.w3.org/2000/svg">
<path d="M55.7687 0.7125L59.2761 1.50417L62.1211 2.53333L64.4204 3.72083L66.1741 4.9875L67.4992 6.33333L68.4735 7.67917L69.097 8.98542L69.4867 10.1729L69.6426 11.2021L69.7206 11.9937L69.6816 12.5083V33.6458L69.4867 36.1396L68.9801 38.3167L68.1617 40.1375L67.1484 41.6417L65.9793 42.8687L64.6932 43.8583L63.3292 44.6104L61.9652 45.1646L60.6791 45.5604L59.51 45.8375L58.4967 45.9958L57.6783 46.075H34.4121L31.7231 46.2729L29.4237 46.8271L27.4751 47.6979L25.8773 48.7667L24.5912 50.0333L23.539 51.4187L22.7595 52.8437L22.175 54.3083L21.7852 55.6937L21.5124 56.9604L21.3566 58.0292L21.2786 58.8604V70.9729H12.5879L11.7695 70.8542L10.6783 70.5771L9.43118 70.1021L8.06716 69.3896L6.66418 68.3604L5.26119 66.9354L3.89718 65.1146L2.65008 62.7792L1.55887 59.8896L0.740464 56.4062L0.194859 52.25L0 47.3812L0.233831 42.5521L0.85738 38.4354L1.7927 34.9917L3.0398 32.1812L4.44279 29.925L6.00166 28.1833L7.63847 26.8771L9.27529 25.9271L10.8342 25.2937L12.2371 24.8979L13.4842 24.7L14.4196 24.6604H15.0431L15.2769 24.7H47.0779V21.4146H24.3184L24.2794 10.5292L24.2015 9.06458L24.3964 7.71875L24.825 6.49167L25.4876 5.38333L26.4619 4.35417L27.67 3.44375L29.1509 2.65208L30.8657 1.93958L32.8532 1.34583L35.1136 0.870833L37.6078 0.475L40.3748 0.2375L43.3756 0.0791667L46.6493 0L51.5987 0.197917L55.7687 0.7125ZM31.2164 8.55L30.3201 9.85625L30.0083 11.4792L30.3201 13.1021L31.2164 14.4479L32.5025 15.3187L34.1003 15.675L35.6982 15.3187L36.9843 14.4479L37.8806 13.1021L38.1924 11.4792L37.8806 9.85625L36.9843 8.55L35.6982 7.67917L34.1003 7.32292L32.5025 7.67917L31.2164 8.55ZM82.2305 24.1854L83.3217 24.4229L84.5688 24.8979L85.9328 25.6104L87.3358 26.6792L88.7388 28.0646L90.1028 29.925L91.3499 32.2604L92.4411 35.15L93.2595 38.6333L93.8051 42.75L94 47.6187L93.7662 52.4875L93.1426 56.6042L92.2073 60.0083L90.9602 62.8187L89.5572 65.075L87.9983 66.8562L86.3615 68.1625L84.7247 69.1125L83.1658 69.7458L81.7629 70.1021L80.5158 70.3L79.5804 70.3792L78.9569 70.3396H46.9221V73.5854H69.6816L69.7206 84.5104L69.7985 85.9354L69.6036 87.2812L69.175 88.5083L68.5124 89.6562L67.5381 90.6458L66.33 91.5958L64.8491 92.3875L63.1343 93.0604L61.1468 93.6542L58.8864 94.1688L56.3922 94.525L53.6252 94.8021L50.6244 94.9604L47.3508 95L42.4013 94.8417L38.2313 94.2875L34.7239 93.4958L31.8789 92.5062L29.5796 91.3187L27.8259 90.0125L26.5008 88.6667L25.5265 87.3208L24.903 86.0146L24.5133 84.8271L24.3574 83.8375L24.2794 83.0458L24.3184 82.5312V61.3937L24.5133 58.8604L25.0199 56.7229L25.8383 54.9021L26.8516 53.3979L28.0207 52.1312L29.3068 51.1812L30.6708 50.3896L32.0348 49.8354L33.3209 49.4396L34.4901 49.2021L35.5033 49.0438L36.3217 48.9646L36.8284 48.925H59.5879L62.277 48.7271L64.5763 48.1729L66.5249 47.3417L68.1227 46.2333L69.4088 44.9667L70.461 43.5812L71.2405 42.1562L71.825 40.7312L72.2148 39.3458L72.4876 38.0792L72.6435 36.9708L72.7214 36.1396V24.0271H80.8665L81.4121 24.0667L82.2305 24.1854ZM57.0158 80.5917L56.1194 81.8979L55.8076 83.5208L56.1194 85.1437L57.0158 86.45L58.3018 87.3604L59.8997 87.6771L61.4975 87.3604L62.7836 86.45L63.6799 85.1437L63.9917 83.5208L63.6799 81.8979L62.7836 80.5917L61.4975 79.6812L59.8997 79.3646L58.3018 79.6812L57.0158 80.5917Z" fill="#9F50FF"/>
</svg>
